<?xml version="1.0" encoding="utf-8"?>
<!-- Generator: Adobe Illustrator 16.0.3, SVG Export Plug-In . SVG Version: 6.00 Build 0)  -->
<!DOCTYPE svg PUBLIC "-//W3C//DTD SVG 1.1//EN" "http://www.w3.org/Graphics/SVG/1.1/DTD/svg11.dtd">
<svg version="1.1" id="Capa_1" xmlns="http://www.w3.org/2000/svg" xmlns:xlink="http://www.w3.org/1999/xlink" x="0px" y="0px"
	 width="300px" height="200px" viewBox="0 0 300 200" enable-background="new 0 0 300 200" xml:space="preserve">
<g>
	<g>
		<path fill="#8B8C91" stroke="#8B8C91" stroke-width="4" stroke-miterlimit="10" d="M62.084,83.472v44.265h-5.166V83.472H62.084z"
			/>
	</g>
</g>
<g>
	<path fill="#8B8C91" stroke="#8B8C91" stroke-width="2" stroke-miterlimit="10" d="M69.543,128.678V83.435h6.741l0.407,6.877
		c1.779-2.442,3.965-4.351,6.56-5.724c2.594-1.371,5.49-2.058,8.687-2.058c3.648,0,6.885,0.881,9.706,2.646
		c2.819,1.765,5.036,4.202,6.651,7.307c1.612,3.107,2.42,6.667,2.42,10.677v25.518h-7.466v-24.611c0-4.404-1.184-7.964-3.552-10.679
		c-2.368-2.715-5.45-4.07-9.25-4.07c-2.564,0-4.857,0.625-6.878,1.877c-2.021,1.251-3.62,2.947-4.796,5.088
		c-1.177,2.144-1.765,4.586-1.765,7.33v25.065H69.543z"/>
</g>
<g>
	<path fill="#8B8C91" stroke="#8B8C91" stroke-width="2" stroke-miterlimit="10" d="M159.71,82.53v24.616
		c0,4.367,1.184,7.919,3.548,10.65c2.368,2.729,5.453,4.094,9.254,4.094c2.563,0,4.857-0.628,6.875-1.879
		c2.022-1.251,3.62-2.956,4.797-5.109c1.177-2.157,1.766-4.594,1.766-7.307V82.53h7.464v45.241h-6.74l-0.406-6.875
		c-1.751,2.442-3.93,4.351-6.54,5.721c-2.607,1.373-5.511,2.061-8.709,2.061c-3.648,0-6.883-0.885-9.703-2.646
		c-2.821-1.766-5.036-4.201-6.65-7.307c-1.614-3.107-2.422-6.67-2.422-10.678V82.53H159.71z"/>
</g>
<g>
	<g>
		<path fill="#8B8C91" stroke="#8B8C91" stroke-width="4" stroke-miterlimit="10" d="M113.502,88.194v-4.722h32.464v4.722H132.3
			v39.542h-5.135V88.194H113.502z"/>
	</g>
</g>
<g>
	<g>
		<path fill="#8B8C91" stroke="#8B8C91" stroke-width="3" stroke-miterlimit="10" d="M206.735,83.475v44.257h-5.424V83.475H206.735z
			"/>
	</g>
</g>
<circle fill="#8B8C91" stroke="#8B8C91" stroke-width="2" stroke-miterlimit="10" cx="129.203" cy="73.465" r="5.114"/>
<g>
	<g>
		<path fill="#8B8C91" stroke="#8B8C91" stroke-width="4" stroke-miterlimit="10" d="M213.65,88.194v-4.722h32.463v4.722h-13.661
			v39.542h-5.136V88.194H213.65z"/>
	</g>
</g>
<path fill="#8B8C91" stroke="#8B8C91" stroke-width="2" stroke-miterlimit="10" d="M234.467,73.465c0,2.825-2.286,5.113-5.114,5.113
	c-2.824,0-5.117-2.288-5.117-5.113c0-2.826,2.293-5.115,5.117-5.115C232.181,68.35,234.467,70.639,234.467,73.465z"/>
</svg>
