<?xml version="1.0" encoding="utf-8"?>
<!-- Generator: Adobe Illustrator 16.0.3, SVG Export Plug-In . SVG Version: 6.00 Build 0)  -->
<!DOCTYPE svg PUBLIC "-//W3C//DTD SVG 1.1//EN" "http://www.w3.org/Graphics/SVG/1.1/DTD/svg11.dtd">
<svg version="1.1" id="Capa_1" xmlns="http://www.w3.org/2000/svg" xmlns:xlink="http://www.w3.org/1999/xlink" x="0px" y="0px"
	 width="300px" height="200px" viewBox="0 0 300 200" enable-background="new 0 0 300 200" xml:space="preserve">
<circle fill="#C1272D" cx="163.331" cy="97.764" r="67.061"/>
<path fill="#FFFFFF" d="M209.042,71.797l-8.392-6.638c0,0-10.8,7.258-20.308,16.215c-6.7,6.312-13.085,13.101-16.543,16.916
	c-4.041,4.459-9.001,9.115-14.017,15.456c-6.6,8.345-11.868,17.27-11.868,17.27L126,112.167l-8.467,4.557L136.99,147
	c0,0,8.979-13.148,19.869-26.533c5.134-6.312,10.224-10.885,13.8-14.736c3.567-3.842,10.108-10.661,17-17.043
	C197.659,79.425,209.042,71.797,209.042,71.797z"/>
</svg>
