<?xml version="1.0" encoding="utf-8"?>
<!-- Generator: Adobe Illustrator 16.0.3, SVG Export Plug-In . SVG Version: 6.00 Build 0)  -->
<!DOCTYPE svg PUBLIC "-//W3C//DTD SVG 1.1//EN" "http://www.w3.org/Graphics/SVG/1.1/DTD/svg11.dtd">
<svg version="1.1" id="Capa_1" xmlns="http://www.w3.org/2000/svg" xmlns:xlink="http://www.w3.org/1999/xlink" x="0px" y="0px"
	 width="300px" height="200px" viewBox="0 0 300 200" enable-background="new 0 0 300 200" xml:space="preserve">
<circle fill="#276023" cx="97.554" cy="87.411" r="59.459"/>
<path fill="#FFFFFF" d="M115.767,107c6.846,0,12.291-2.182,16.337-6.041c4.046-3.86,6.068-9.18,6.068-15.712
	c0-6.169-1.946-11.321-5.841-15.333c-3.895-4.011-8.907-6.046-14.873-6.046c-2.066,0-5.458,0.322-8.458,0.986v7.101
	c2-0.568,3.985-0.908,4.535-1.015c0.608-0.117,1.425-0.177,2.37-0.177c4.082,0,7.428,1.359,10.001,4.072
	c2.574,2.717,3.871,6.213,3.871,10.491c0,3.79-1.136,6.976-3.42,9.554c-0.731,0.818-1.535,1.509-2.419,2.071
	c-0.882,0.562-1.925,0.625-3.127,0.947c-1.203,0.317-3.599,0.103-7.192,0.103H107V41h-8v66H115.767z"/>
<path fill="#FFFFFF" d="M79.404,69c-6.846,0-12.291,2.182-16.337,6.041c-4.046,3.86-6.068,9.181-6.068,15.713
	c0,6.169,1.946,11.32,5.841,15.334c3.895,4.01,8.822,6.046,14.788,6.046c2.066,0,5.372-0.322,8.372-0.986v-7.101
	c-2,0.567-3.899,0.907-4.449,1.014c-0.608,0.117-1.383,0.178-2.328,0.178c-4.082,0-7.407-1.359-9.979-4.072
	c-2.574-2.717-3.86-6.213-3.86-10.491c0-3.79,1.142-6.976,3.426-9.554c0.731-0.818,1.538-1.509,2.422-2.071
	c0.882-0.562,1.926-0.626,3.128-0.947C75.563,77.786,77.96,78,81.553,78H88v57h8V69H79.404z"/>
</svg>
